<?xml version="1.0" standalone="no"?>
<!DOCTYPE svg PUBLIC "-//W3C//DTD SVG 20010904//EN"
 "http://www.w3.org/TR/2001/REC-SVG-20010904/DTD/svg10.dtd">
<svg version="1.0" xmlns="http://www.w3.org/2000/svg"
 width="640.000000pt" height="640.000000pt" viewBox="0 0 640.000000 640.000000"
 preserveAspectRatio="xMidYMid meet">
<metadata>
Created by potrace 1.14, written by Peter Selinger 2001-2017
</metadata>
<g transform="translate(0.000000,640.000000) scale(0.100000,-0.100000)"
fill="#000000" stroke="none">
<path d="M2955 5588 c-138 -14 -367 -63 -501 -107 -730 -242 -1293 -805 -1535
-1535 -99 -299 -139 -657 -108 -972 92 -952 733 -1754 1643 -2055 259 -86 549
-126 836 -116 345 13 640 85 945 231 650 312 1130 903 1298 1597 52 211 62
307 62 569 0 262 -10 358 -62 569 -115 478 -391 926 -768 1249 -317 272 -686
452 -1085 532 -244 49 -492 62 -725 38z m461 -149 c413 -40 811 -197 1147
-451 104 -79 300 -269 384 -373 263 -325 426 -708 484 -1135 7 -52 13 -178 13
-280 0 -190 -11 -307 -45 -465 -70 -327 -201 -616 -402 -885 -85 -114 -271
-307 -382 -397 -325 -263 -708 -426 -1135 -484 -196 -27 -519 -15 -725 27
-687 139 -1268 589 -1576 1218 -304 623 -304 1349 0 1972 412 842 1307 1344
2237 1253z"/>
<path d="M4012 4450 c-148 -31 -256 -163 -256 -316 0 -60 5 -81 32 -136 77
-157 247 -222 407 -157 l60 25 34 -23 c100 -68 251 13 251 134 0 82 -51 153
-120 168 -23 5 -30 12 -30 31 0 40 -36 123 -75 169 -65 80 -199 126 -303 105z
m156 -177 c101 -75 97 -210 -8 -281 -29 -20 -44 -23 -93 -20 -94 7 -157 71
-157 160 0 72 38 131 100 157 38 16 127 7 158 -16z"/>
<path d="M2915 3936 c-359 -69 -600 -310 -681 -680 -24 -109 -29 -331 -10
-455 20 -131 78 -304 137 -406 52 -93 150 -197 236 -253 203 -130 554 -159
800 -67 155 59 297 188 376 342 41 81 94 221 86 227 -2 1 -53 15 -114 31 -60
15 -115 30 -121 32 -6 2 -18 -21 -27 -54 -56 -199 -183 -339 -356 -394 -87
-28 -250 -30 -336 -5 -142 42 -270 137 -328 245 -70 127 -107 302 -107 496 1
270 73 475 210 598 199 178 559 194 738 32 52 -46 107 -129 139 -208 14 -34
27 -64 28 -66 2 -2 56 9 120 24 l117 27 -6 32 c-3 17 -27 74 -52 125 -39 79
-62 110 -133 181 -96 96 -177 144 -301 180 -96 28 -312 36 -415 16z"/>
</g>
</svg>
